<svg width="84" height="71" viewBox="0 0 84 71" fill="none" xmlns="http://www.w3.org/2000/svg">
<path d="M79.716 44.0683L82.0907 42.0661C83.5851 40.8052 83.5851 38.7539 82.0907 37.493C81.3663 36.8826 80.4037 36.5461 79.3792 36.5461C78.6104 36.5461 77.8758 36.7357 77.2515 37.0887L76.7512 35.6724L79.3215 33.5041C80.8166 32.2432 80.8166 30.1919 79.3215 28.9315C77.9455 27.7705 75.776 27.6813 74.2733 28.6581L71.2275 20.0341C72.4439 19.0461 73.6091 18.0848 74.7071 17.1587C77.8714 14.4895 80.4443 11.6649 81.952 9.20393C84.4995 5.04468 83.4332 2.8214 82.0901 1.68866C80.7476 0.555922 78.1114 -0.342898 73.1791 1.80562C70.2618 3.07668 66.9119 5.24656 63.7476 7.91578C62.6496 8.84184 61.5091 9.82397 60.3383 10.8499L50.1121 8.28107C51.2703 7.01429 51.1645 5.1846 49.7885 4.02356C48.2934 2.76318 45.8611 2.76265 44.3667 4.02356L41.7957 6.19184L40.1157 5.76993C40.5343 5.24282 40.7591 4.62331 40.7591 3.97496C40.7591 3.11139 40.3602 2.29909 39.6364 1.68866C38.1419 0.427748 35.709 0.427748 34.2146 1.68866L31.8405 3.69084L19.74 0.650984C19.3087 0.543104 18.8427 0.642439 18.5254 0.910536L15.4105 3.53757C14.8874 3.97817 14.9565 4.73172 15.553 5.09969L46.084 23.9471C39.2001 30.4931 32.5688 37.0471 27.8872 41.7297L18.9066 38.8164C18.4551 38.6701 17.9441 38.7614 17.6021 39.0498L13.9103 42.1633C13.4329 42.5665 13.4329 43.2197 13.9103 43.6224L32.3687 59.1896C32.8398 59.5875 33.6275 59.5875 34.0993 59.1896L37.7905 56.0766C38.1324 55.7882 38.2413 55.3567 38.0672 54.9759L34.6135 47.4024C40.1658 43.4542 47.9362 37.8615 55.6985 32.0552L58.1238 34.8505C58.5544 35.3466 59.4277 35.4107 59.9558 34.9877C60.3959 34.6352 60.4567 34.044 60.0989 33.6318L57.5349 30.6773C61.594 27.622 65.6024 24.5394 69.2391 21.6347L80.7672 54.2736L79.1772 55.6141L63.3329 37.3579C62.9339 36.8981 62.1683 36.7982 61.6231 37.1346C61.0772 37.4716 60.9588 38.1173 61.3584 38.5771L78.0462 57.8048C78.4825 58.3079 79.376 58.3661 79.8984 57.925L83.0133 55.298C83.3312 55.0304 83.449 54.6368 83.3211 54.2736L79.716 44.0683ZM46.0973 5.48314C46.6318 5.0324 47.524 5.0324 48.0585 5.48314C48.5992 5.93923 48.5992 6.68104 48.0585 7.13712L47.4847 7.62098L44.4623 6.86155L46.0973 5.48314ZM35.9452 3.14824C36.4854 2.69215 37.3656 2.69215 37.9064 3.14824C38.4471 3.60433 38.4471 4.34613 37.9064 4.80222L37.5289 5.11998L34.5071 4.36109L35.9452 3.14824ZM18.1499 4.14533L19.74 2.80484L58.4404 12.5268C54.9962 15.5945 51.3412 18.9751 47.7178 22.3984L18.1499 4.14533ZM18.7705 40.9836L26.2205 43.4002C24.3518 45.2769 22.9188 46.729 22.0734 47.5883L16.506 42.8929L18.7705 40.9836ZM23.8117 49.0543C28.0772 44.714 50.6237 21.9028 65.4783 9.37483C68.4254 6.88878 71.6422 4.79848 74.3025 3.63957C76.2997 2.76906 78.972 1.97758 80.3601 3.14824C81.7481 4.3189 80.809 6.57262 79.7775 8.25704C78.4033 10.5006 75.9242 13.2131 72.9765 15.6991C58.1232 28.226 31.075 47.2417 25.9286 50.8396L23.8117 49.0543ZM35.4981 55.0913L33.2343 57.0005L27.6669 52.3051C28.6851 51.5927 30.4075 50.3841 32.6327 48.8081L35.4981 55.0913ZM78.3989 38.9526C78.9397 38.4965 79.8193 38.4965 80.3601 38.9526C80.9008 39.4087 80.9008 40.1505 80.3601 40.6066L78.922 41.8194L78.0215 39.2709L78.3989 38.9526ZM75.6304 30.3906C76.1705 29.9345 77.0507 29.935 77.5915 30.3906C78.126 30.8413 78.126 31.5938 77.5915 32.0445L75.9565 33.4235L75.056 30.8744L75.6304 30.3906Z" fill="#454545" stroke="#454545"/>
<path d="M73.949 59.932L63.5075 68.7381C63.0623 69.1141 63.0326 69.7346 63.4423 70.1384C63.9001 70.5891 64.7404 70.6174 65.2381 70.1977L75.6796 61.3916C76.1577 60.9884 76.1577 60.3352 75.6796 59.932C75.2022 59.5293 74.4271 59.5293 73.949 59.932Z" fill="#454545" stroke="#454545"/>
<path d="M70.4585 56.9881C70.9366 56.5855 70.9366 55.9318 70.4585 55.5291C69.9811 55.1259 69.206 55.1259 68.7285 55.5291L62.2023 61.0326C61.7572 61.4085 61.7274 62.0291 62.1371 62.4329C62.5949 62.8836 63.4352 62.9119 63.933 62.4921L70.4585 56.9881Z" fill="#454545" stroke="#454545"/>
<path d="M66.5436 51.4848C67.0217 51.0816 67.0217 50.4279 66.5436 50.0252C66.0655 49.622 65.291 49.622 64.8129 50.0252L60.2447 53.8779C59.7995 54.2533 59.7698 54.8744 60.1801 55.2782C60.6373 55.7289 61.4776 55.7572 61.9754 55.3375L66.5436 51.4848Z" fill="#454545" stroke="#454545"/>
<path d="M13.0307 7.64552C12.5526 7.24284 11.7775 7.24284 11.3001 7.64552L0.858573 16.4521C0.380476 16.8548 0.380476 17.5085 0.858573 17.9112C1.3297 18.3085 2.11745 18.3085 2.58922 17.9112L13.0307 9.1051C13.5082 8.70188 13.5082 8.04873 13.0307 7.64552Z" fill="#454545" stroke="#454545"/>
<path d="M18.2512 12.0489C17.7731 11.6457 16.9987 11.6457 16.5212 12.0489L9.99503 17.5529C9.54923 17.9283 9.5201 18.5489 9.9298 18.9526C10.3876 19.4034 11.2273 19.4317 11.725 19.0119L18.2512 13.5085C18.7293 13.1052 18.7293 12.4516 18.2512 12.0489Z" fill="#454545" stroke="#454545"/>
<path d="M18.4782 20.6632C18.95 21.0606 19.7371 21.0606 20.2089 20.6632L24.7771 16.8105C25.2545 16.4073 25.2545 15.7542 24.7771 15.351C24.299 14.9483 23.5245 14.9483 23.0464 15.351L18.4782 19.2037C18.0008 19.6069 18.0008 20.26 18.4782 20.6632Z" fill="#454545" stroke="#454545"/>
</svg>
