<svg width="66" height="73" viewBox="0 0 66 73" fill="none" xmlns="http://www.w3.org/2000/svg">
<path d="M63.3426 21.5552H54.3213V17.1593C54.3213 7.69751 44.7567 0 33 0C21.2433 0 11.6787 7.69751 11.6787 17.1593V21.5552H2.65743C1.18982 21.5552 0 22.5128 0 23.6939V70.8613C0 72.0424 1.18982 73 2.65743 73H63.3426C64.8102 73 66 72.0424 66 70.8613V23.6939C66 22.5127 64.8102 21.5552 63.3426 21.5552ZM16.9936 17.1593C16.9936 10.056 24.174 4.27734 33 4.27734C41.826 4.27734 49.0064 10.056 49.0064 17.1593V21.5552H43.9862V16.9066C43.9862 12.0315 39.0579 8.06507 33 8.06507C26.9423 8.06507 22.0138 12.0313 22.0138 16.9066V21.5552H16.9936V17.1593ZM38.6713 21.5552H27.3287V16.9066C27.3287 14.39 29.8729 12.3424 33 12.3424C36.1271 12.3424 38.6713 14.3898 38.6713 16.9066V21.5552ZM10.3806 50.1845H5.31487V44.3709H10.3806V50.1845ZM5.31487 54.4618H10.3806V60.2756H5.31487V54.4618ZM10.3806 40.0934H5.31487V34.2798H10.3806V40.0934ZM60.6851 68.7227H5.31487V64.553H13.0381C14.5057 64.553 15.6955 63.5954 15.6955 62.4143V32.1411C15.6955 30.96 14.5057 30.0024 13.0381 30.0024H5.31487V25.8326H60.6851V68.7227Z" fill="#454545"/>
<path d="M37.0041 44.0954C34.5585 43.3996 31.8536 42.5591 30.3343 41.6C29.8462 41.292 29.6341 40.5907 29.8063 39.8551C29.9828 39.1016 30.6119 38.1895 31.8483 37.8898C34.3844 37.2749 36.1241 38.0911 36.7546 38.4704C37.9299 39.1777 39.5952 38.9843 40.4743 38.0384C41.3532 37.0924 41.1128 35.7523 39.9373 35.045C39.3699 34.7035 37.9439 33.953 35.8996 33.5937V32.682C35.8996 31.5009 34.7098 30.5433 33.2422 30.5433C31.7746 30.5433 30.5848 31.5009 30.5848 32.682V33.7337C30.4951 33.7536 30.4058 33.7724 30.3153 33.7944C27.3737 34.5076 25.1773 36.5263 24.5832 39.0631C24.0367 41.397 24.9834 43.6587 27.0539 44.9657C28.766 46.0464 31.1354 46.9626 35.2324 48.1284C37.9932 48.9137 37.9333 50.7127 37.7792 51.4499C37.4677 52.9407 35.9096 54.5518 33.2243 54.5661C30.6051 54.5795 29.7881 54.4757 27.7736 53.4153C26.5455 52.7686 24.8984 53.0459 24.095 54.0342C23.2915 55.0227 23.6359 56.3481 24.864 56.9949C27.0329 58.1368 28.6298 58.5959 30.5846 58.7611V59.7846C30.5846 60.9657 31.7744 61.9232 33.242 61.9232C34.7096 61.9232 35.8995 60.9657 35.8995 59.7846V58.5567C37.3924 58.23 38.7528 57.6286 39.9143 56.7699C41.5488 55.5611 42.652 53.9237 43.0207 52.159C43.7699 48.5726 41.3518 45.3321 37.0041 44.0954Z" fill="#454545"/>
</svg>
